# xmcd CD database file
#
# Track frame offsets:
#	150
#	12880
#	27753
#	42613
#	56423
#	69202
#	84470
#	101840
#	113435
#	124947
#	136239
#	146195
#	157324
#	167054
#	180991
#	191593
#	203132
#	214116
#	232529
#	247474
#	260697
#	275245
#
# Disc length: 3888 seconds
#
# Revision: 2
# Processed by: cddbd v1.4b41PL1 Copyright (c) Steve Scherf et al.
# Submitted via: Feurio! 1.60 - http://www.feurio.com
#
DISCID=390f2e16,430f2e16
DTITLE=Various Artist - Country Greats-Millenium Collection-CD1
DYEAR=1900
DGENRE=
TTITLE0=Johnny Cash - Folsom Prison Blues
TTITLE1=Bellamy Brothers - Lovers Live Longer
TTITLE2=Kingston Trio - Tom Dooley
TTITLE3=Willie Nelson - Home Is Where You're Happy
TTITLE4=Lynn Anderson - Rose Garden (Neuaufn.)
TTITLE5=Merle Haggard - Mule Skinner Blues
TTITLE6=Ferlin Husky - Convoy
TTITLE7=Dolly Parton - Making Believe
TTITLE8=Jonny Lee - Ramblin' Rose
TTITLE9=Waylon Jennings - Sally Was A Good Old Girl
TTITLE10=Freddy Fender - Before The Next Teardrop Falls -live-
TTITLE11=Tammy Wynette - D.I.V.O.R.C.E. -live-
TTITLE12=Carl Perkins - This Old House
TTITLE13=Danny Davis And The Nashville Brass - Blue Bayou -live-
TTITLE14=Bob Wills - Take Me Back To Texas
TTITLE15=Hoyt Axton - No No Song
TTITLE16=Rex Allen Junior - It#s Over -live-
TTITLE17=Nitty Gritty Dirt Band - Mr. Bojangles -live-
TTITLE18=Olivia Newton-john - Take Me Home Country Road
TTITLE19=Roy Accuf - Tennessee Waltz
TTITLE20=Mel Tilis - Detroit City -live-
TTITLE21=John Brack And Jeff Turner - Amazing Grace
EXTD=Tim -2000\r\ncountry Greats-millenium Collection-cd1
EXTT0=
EXTT1=
EXTT2=
EXTT3=
EXTT4=
EXTT5=
EXTT6=
EXTT7=
EXTT8=
EXTT9=
EXTT10=
EXTT11=
EXTT12=
EXTT13=
EXTT14=
EXTT15=
EXTT16=
EXTT17=
EXTT18=
EXTT19=
EXTT20=
EXTT21=
PLAYORDER=
